<?xml version="1.0" standalone="no"?>
<!DOCTYPE svg PUBLIC "-//W3C//DTD SVG 20010904//EN"
 "http://www.w3.org/TR/2001/REC-SVG-20010904/DTD/svg10.dtd">
<svg version="1.0" xmlns="http://www.w3.org/2000/svg"
 width="225.000000pt" height="225.000000pt" viewBox="0 0 225.000000 225.000000"
 preserveAspectRatio="xMidYMid meet">
<metadata>
Created by potrace 1.14, written by Peter Selinger 2001-2017
</metadata>
<g transform="translate(0.000000,225.000000) scale(0.100000,-0.100000)"
fill="#000000" stroke="none">
<path d="M802 1613 c3 -71 5 -78 25 -81 17 -3 22 2 25 25 4 40 42 40 46 0 3
-23 8 -28 25 -25 20 3 22 10 25 81 3 77 3 77 -23 77 -20 0 -25 -5 -25 -25 0
-20 -5 -25 -25 -25 -20 0 -25 5 -25 25 0 20 -5 25 -25 25 -26 0 -26 0 -23 -77z"/>
<path d="M970 1665 c0 -18 5 -25 19 -25 17 0 20 -8 23 -52 3 -49 5 -53 28 -53
23 0 25 4 28 53 3 44 6 52 23 52 14 0 19 7 19 25 0 24 -2 25 -70 25 -68 0 -70
-1 -70 -25z"/>
<path d="M1132 1613 c3 -72 5 -78 26 -81 19 -3 22 1 22 35 l0 38 19 -24 18
-24 16 23 c16 22 16 22 19 -11 2 -26 8 -35 26 -37 21 -3 22 -1 22 77 0 79 -1
81 -24 81 -15 0 -30 -10 -41 -27 l-17 -26 -17 26 c-11 19 -24 27 -44 27 l-28
0 3 -77z"/>
<path d="M1330 1610 l0 -80 60 0 60 0 0 30 c0 28 -3 30 -35 30 l-35 0 0 50 c0
47 -2 50 -25 50 -25 0 -25 -1 -25 -80z"/>
<path d="M370 1491 l0 -61 55 0 c48 0 55 2 55 20 0 16 -7 20 -30 20 -22 0 -30
5 -30 18 0 13 8 18 28 17 20 0 27 5 27 20 0 17 -8 20 -52 23 l-53 3 0 -60z"/>
<path d="M490 1526 c0 -13 10 -30 23 -39 l22 -16 -22 0 c-16 -1 -23 -7 -23
-21 0 -18 7 -20 55 -20 47 0 55 3 55 19 0 10 -7 24 -16 32 -14 11 -14 13 0 21
9 5 16 18 16 28 0 17 -7 20 -55 20 -51 0 -55 -2 -55 -24z"/>
<path d="M613 1534 c-3 -8 4 -25 17 -40 l23 -24 -22 0 c-16 0 -22 -5 -19 -17
5 -26 108 -32 108 -7 0 10 -7 26 -17 36 -15 17 -15 18 0 18 11 0 17 8 17 25 0
23 -3 25 -50 25 -37 0 -52 -4 -57 -16z"/>
<path d="M1648 1513 c-3 -33 -7 -38 -30 -41 -20 -2 -28 -9 -28 -23 0 -16 7
-19 50 -19 l50 0 0 60 c0 53 -2 60 -19 60 -16 0 -20 -8 -23 -37z"/>
<path d="M1710 1526 c0 -14 10 -32 22 -40 l22 -16 -22 0 c-15 0 -22 -6 -22
-20 0 -17 7 -20 50 -20 44 0 50 2 50 21 0 12 -8 28 -17 35 -17 13 -17 13 0 14
11 0 17 8 17 25 0 23 -3 25 -50 25 -46 0 -50 -2 -50 -24z"/>
<path d="M730 1425 l0 -45 -240 0 c-132 0 -240 -3 -240 -7 0 -14 52 -598 54
-600 0 -1 55 -16 121 -35 l120 -34 95 26 c166 46 147 48 155 -18 l6 -58 153
-42 c84 -23 161 -42 171 -42 10 0 87 19 171 42 l154 42 6 58 c4 32 11 58 15
58 5 0 59 -14 120 -31 l110 -30 117 32 c64 18 118 33 120 35 5 3 52 520 52
567 l0 37 -235 0 -235 0 0 45 0 45 -395 0 -395 0 0 -45z m640 -175 l0 -50
-196 0 c-175 0 -195 -2 -190 -16 3 -9 6 -31 6 -50 l0 -34 178 0 c98 0 181 -2
183 -4 2 -3 -1 -62 -8 -133 -6 -70 -12 -137 -12 -149 -1 -17 -16 -25 -96 -47
-52 -15 -102 -27 -110 -27 -8 0 -57 12 -109 26 l-94 27 -6 51 c-12 106 -12
106 44 106 l50 0 0 -40 c0 -38 1 -40 43 -50 23 -6 48 -13 55 -15 7 -3 40 3 73
12 l59 16 0 48 c0 26 3 54 6 63 5 14 -13 16 -168 16 l-175 0 -12 128 c-6 70
-11 137 -11 150 l0 22 245 0 245 0 0 -50z m-640 -12 c0 -13 -7 -97 -15 -188
-8 -91 -15 -168 -15 -171 0 -3 -34 -14 -75 -24 -73 -19 -77 -19 -151 0 -42 10
-78 24 -79 29 -2 6 -6 32 -10 59 l-6 47 40 0 c38 0 41 -2 41 -28 0 -24 5 -29
41 -39 30 -8 51 -7 82 2 40 12 42 14 47 59 l6 46 -128 0 -128 0 0 33 0 34 127
6 c132 7 143 11 143 55 0 22 -1 22 -140 22 -105 0 -140 3 -140 13 0 6 -3 22
-6 34 -6 22 -4 22 92 26 281 9 274 9 274 -15z m1159 -5 c0 -16 -8 -102 -17
-193 l-17 -164 -74 -21 -73 -21 -75 20 c-83 22 -93 34 -93 107 0 38 1 39 34
39 31 0 34 -3 40 -34 6 -30 11 -35 45 -41 21 -3 57 -2 79 4 39 11 39 11 46 71
3 33 9 87 12 120 l7 60 -141 0 -140 0 -4 40 -4 40 188 0 188 0 -1 -27z"/>
</g>
</svg>
